<svg xmlns="http://www.w3.org/2000/svg" width="10" height="10" viewBox="0 0 10 10" fill="none">
  <path d="M5.00004 8.75002C4.47376 8.30112 3.98595 7.80899 3.54171 7.27877C2.87504 6.48252 2.08337 5.29669 2.08337 4.16669C2.08278 2.9865 2.79348 1.92227 3.88382 1.4706C4.97416 1.01894 6.22924 1.26887 7.06338 2.10377C7.6119 2.64986 7.91917 3.39268 7.91672 4.16669C7.91672 5.29669 7.12504 6.48252 6.45837 7.27877C6.01413 7.80899 5.52632 8.30112 5.00004 8.75002ZM5.00004 2.91669C4.55346 2.91669 4.1408 3.15494 3.91751 3.54169C3.69422 3.92844 3.69422 4.40494 3.91751 4.79169C4.1408 5.17844 4.55346 5.41669 5.00004 5.41669C5.6904 5.41669 6.25004 4.85704 6.25004 4.16669C6.25004 3.47633 5.6904 2.91669 5.00004 2.91669Z" fill="#79819A"/>
</svg>