<svg xmlns="http://www.w3.org/2000/svg" width="10" height="10" viewBox="0 0 10 10" fill="none">
  <path d="M7.91558 8.33335C4.36074 8.33839 1.66283 5.60814 1.66663 2.0844C1.66663 1.85428 1.85318 1.66669 2.0833 1.66669H3.18303C3.38952 1.66669 3.56493 1.81841 3.59525 2.02266C3.66792 2.51219 3.81045 2.98876 4.01849 3.43781L4.06131 3.53023C4.12085 3.65873 4.08049 3.81141 3.96524 3.89372C3.62467 4.13693 3.49451 4.6265 3.75983 5.0085C4.09278 5.48787 4.51248 5.90748 4.99174 6.24028C5.37372 6.50553 5.86321 6.37539 6.10642 6.03487C6.18878 5.91956 6.34155 5.87919 6.47012 5.93875L6.56212 5.98136C7.0112 6.18939 7.48781 6.33193 7.97739 6.40458C8.18164 6.4349 8.33329 6.6103 8.33329 6.8168V7.91668C8.33329 8.1468 8.14629 8.33335 7.91617 8.33334L7.91558 8.33335Z" fill="#79819A"/>
</svg>