<svg xmlns="http://www.w3.org/2000/svg" width="8" height="8" viewBox="0 0 8 8" fill="none">
  <path d="M3.19374 0.72894C1.96416 0.968918 0.973314 1.95728 0.73086 3.18315C0.273167 5.49633 2.36 7.22071 3.93224 6.97702C4.44189 6.89785 4.69176 6.30162 4.45797 5.84269C4.17222 5.2811 4.58043 4.62549 5.21131 4.62549H6.1972C6.64005 4.62549 6.99878 4.25933 7.00002 3.81773C6.99383 1.86822 5.21996 0.334337 3.19374 0.72894ZM1.85406 4.62549C1.63511 4.62549 1.45822 4.4486 1.45822 4.22965C1.45822 4.0107 1.63511 3.83381 1.85406 3.83381C2.07301 3.83381 2.24991 4.0107 2.24991 4.22965C2.24991 4.4486 2.07301 4.62549 1.85406 4.62549ZM2.24991 3.04213C2.03096 3.04213 1.85406 2.86524 1.85406 2.64629C1.85406 2.42734 2.03096 2.25045 2.24991 2.25045C2.46886 2.25045 2.64575 2.42734 2.64575 2.64629C2.64575 2.86524 2.46886 3.04213 2.24991 3.04213ZM3.83328 2.25045C3.61433 2.25045 3.43744 2.07356 3.43744 1.85461C3.43744 1.63566 3.61433 1.45877 3.83328 1.45877C4.05223 1.45877 4.22912 1.63566 4.22912 1.85461C4.22912 2.07356 4.05223 2.25045 3.83328 2.25045ZM5.41665 3.04213C5.1977 3.04213 5.02081 2.86524 5.02081 2.64629C5.02081 2.42734 5.1977 2.25045 5.41665 2.25045C5.6356 2.25045 5.81249 2.42734 5.81249 2.64629C5.81249 2.86524 5.6356 3.04213 5.41665 3.04213Z" fill="#9251F7"/>
</svg>