<svg xmlns="http://www.w3.org/2000/svg" width="10" height="11" viewBox="0 0 10 11" fill="none">
  <path d="M8.33126 3.28665C8.70477 3.06336 8.98425 2.71175 9.11751 2.29749C8.76653 2.50574 8.38252 2.65243 7.98209 2.73124C7.42692 2.14395 6.5473 2.00104 5.83476 2.38234C5.12221 2.76365 4.75313 3.57477 4.93376 4.36248C3.49609 4.29031 2.15666 3.6112 1.24876 2.49415C0.77494 3.31141 1.01707 4.35614 1.80209 4.88165C1.51822 4.87253 1.24064 4.79567 0.992506 4.65749C0.992506 4.66499 0.992506 4.67249 0.992506 4.67999C0.992671 5.5313 1.59266 6.2646 2.42709 6.43332C2.16378 6.50495 1.88759 6.5155 1.61959 6.46415C1.85426 7.19218 2.52524 7.69094 3.29001 7.70582C2.6566 8.20296 1.87437 8.47255 1.06917 8.47124C0.926453 8.47144 0.783844 8.46323 0.64209 8.44665C1.45975 8.97208 2.41141 9.25097 3.38334 9.24998C4.73553 9.25927 6.03502 8.7262 6.99114 7.76999C7.94727 6.81379 8.48024 5.51425 8.47084 4.16207C8.47084 4.08457 8.46903 4.00749 8.46542 3.93082C8.81561 3.67774 9.11784 3.36421 9.35792 3.00499C9.03168 3.14959 8.68562 3.24454 8.33126 3.28665Z" fill="white"/>
</svg>