<svg xmlns="http://www.w3.org/2000/svg" width="8" height="8" viewBox="0 0 8 8" fill="none">
<path d="M2.89529 6.66717C2.26336 6.66717 1.69366 6.28651 1.45179 5.70271C1.20992 5.1189 1.34352 4.44688 1.79029 3.99998L2.45341 3.33685L2.89529 3.77873L2.23248 4.44154C1.99562 4.67839 1.90312 5.02362 1.98981 5.34717C2.07651 5.67072 2.32923 5.92344 2.65278 6.01014C2.97633 6.09684 3.32156 6.00433 3.55841 5.76748L4.22123 5.10466L4.6631 5.54685L4.00029 6.20966C3.70781 6.50358 3.30993 6.66831 2.89529 6.66717ZM3.11623 5.3256L2.67435 4.88373L4.88404 2.67404L5.32591 3.11591L3.11654 5.32529L3.11623 5.3256ZM5.54716 4.66279L5.10498 4.22091L5.76779 3.5581C6.00787 3.32195 6.10285 2.97518 6.01661 2.64966C5.93038 2.32413 5.67617 2.06987 5.35067 1.98355C5.02516 1.89724 4.67837 1.99214 4.44216 2.23216L3.77904 2.89498L3.33716 2.4531L4.00029 1.78998C4.61125 1.18434 5.59684 1.1865 6.20515 1.7948C6.81345 2.40311 6.81561 3.3887 6.20998 3.99966L5.54716 4.66248V4.66279Z" fill="#516CF7"/>
</svg>